<svg width="20" height="20" viewBox="0 0 20 20" fill="none" xmlns="http://www.w3.org/2000/svg">
    <path fill-rule="evenodd" clip-rule="evenodd"
        d="M9.99976 13.3334C9.80976 13.3334 9.62059 13.2692 9.46643 13.1401L4.46643 8.9734C4.11309 8.67923 4.06476 8.1534 4.35976 7.80007C4.65393 7.44673 5.17893 7.39923 5.53309 7.6934L10.0089 11.4234L14.4773 7.82757C14.8356 7.53923 15.3606 7.5959 15.6489 7.95423C15.9373 8.31257 15.8806 8.83673 15.5223 9.1259L10.5223 13.1492C10.3698 13.2717 10.1848 13.3334 9.99976 13.3334Z"
        fill="white" />
    <mask id="mask0_3092_60" style="mask-type:luminance" maskUnits="userSpaceOnUse" x="4" y="7" width="12" height="7">
        <path fill-rule="evenodd" clip-rule="evenodd"
            d="M9.99976 13.3334C9.80976 13.3334 9.62059 13.2692 9.46643 13.1401L4.46643 8.9734C4.11309 8.67923 4.06476 8.1534 4.35976 7.80007C4.65393 7.44673 5.17893 7.39923 5.53309 7.6934L10.0089 11.4234L14.4773 7.82757C14.8356 7.53923 15.3606 7.5959 15.6489 7.95423C15.9373 8.31257 15.8806 8.83673 15.5223 9.1259L10.5223 13.1492C10.3698 13.2717 10.1848 13.3334 9.99976 13.3334Z"
            fill="white" />
    </mask>
    <g mask="url(#mask0_3092_60)">
        <rect width="20" height="20" fill="white" />
    </g>
</svg>